C:\GBW_MyPrograms\KinderuniversiteitApp\Resultaten\New_group\Olaf\Olaf_v1.mot
version=1
nRows=11
nColumns=29
inDegrees=yes
endheader
                time	         pelvis_tilt	           pelvis_tx	           pelvis_ty	       hip_flexion_l	       hip_flexion_r	        knee_angle_l	        knee_angle_r	       ankle_angle_l	       ankle_angle_r	    lumbar_extension	hamstrings_r/activation	bifemsh_r/activation	glut_max_r/activation	iliopsoas_r/activation	rect_fem_r/activation	  vasti_r/activation	gastroc_r/activation	 soleus_r/activation	tib_ant_r/activation	hamstrings_l/activation	bifemsh_l/activation	glut_max_l/activation	iliopsoas_l/activation	rect_fem_l/activation	  vasti_l/activation	gastroc_l/activation	 soleus_l/activation	tib_ant_l/activation	
          0.94768172	        -16.95179621	          1.14067435	          0.87859972	          6.07047860	         38.53754354	        -18.44878189	         -6.83883546	         14.22839727	         15.02748012	          1.13720359	          0.99202296	          0.62698105	          0.98310491	          0.05930644	          0.06416389	          0.47495047	          0.05112187	          0.05102303	          0.99810246	          0.37514109	          0.97387824	          0.07925913	          0.99408116	          0.07372033	          0.05172754	          0.99571415	          0.99804500	          0.05193959	
          0.95715853	        -16.68789954	          1.15824947	          0.87606624	          6.62383526	         36.62056136	        -22.08361318	         -5.51688729	         14.12261835	         13.26185195	          1.61728446	          0.99477005	          0.76605797	          0.98784699	          0.05446100	          0.05879838	          0.40912902	          0.05069689	          0.05056088	          0.99883950	          0.32352485	          0.97513123	          0.06909828	          0.93583188	          0.07287823	          0.05086298	          0.99566564	          0.99827562	          0.05116296	
          0.96663535	        -16.43056212	          1.17185479	          0.87418581	          7.64707930	         34.99519038	        -26.36037335	         -4.56464044	         13.44102279	         10.56497960	          1.94150329	          0.99034082	          0.85214464	          0.97480465	          0.05602071	          0.05817778	          0.35299575	          0.05094110	          0.05080582	          0.99869038	          0.27873439	          0.96859523	          0.06033825	          0.96065650	          0.43299056	          0.05016484	          0.99584975	          0.99814640	          0.05026852	
          0.97611217	        -16.24639489	          1.18535936	          0.87348092	          9.22606558	         33.88068673	        -31.10800193	         -4.02574381	         11.56418447	          6.25688039	          2.09564757	          0.99211016	          0.90327520	          0.97693093	          0.06045165	          0.05700189	          0.30470541	          0.05139478	          0.05147102	          0.99900299	          0.24013371	          0.92506033	          0.05385169	          0.97497648	          0.65310454	          0.05010351	          0.93200497	          0.87931499	          0.05007314	
          0.98558899	        -16.05717408	          1.19756733	          0.87386875	         11.05639603	         33.13653944	        -35.77172591	         -3.97657368	          8.45719978	          1.77771798	          2.02752050	          0.99315006	          0.88302694	          0.98007057	          0.06104833	          0.05520375	          0.26319785	          0.05075313	          0.05065637	          0.99969696	          0.20689092	          0.81229004	          0.05182579	          0.98272339	          0.78757210	          0.05005914	          0.80480909	          0.75889017	          0.23717204	
          0.99506580	        -15.83391328	          1.20888968	          0.87499409	         12.92735181	         32.63644522	        -40.12720312	         -4.45488870	          4.62213117	         -1.58159938	          1.77143941	          0.99117999	          0.76709545	          0.98466912	          0.05807831	          0.05292188	          0.54960325	          0.05008215	          0.05001762	          0.99973888	          0.17825843	          0.71420309	          0.05274388	          0.98629098	          0.86961962	          0.41851790	          0.69483797	          0.65484699	          0.53308045	
          1.00454262	        -15.52785612	          1.21967622	          0.87671226	         14.60674133	         32.19615545	        -43.91184247	         -5.35878340	          1.67802444	         -3.02807504	          1.32211240	          0.98784764	          0.66365825	          0.98856935	          0.05456404	          0.11421769	          0.72441661	          0.21379682	          0.41863875	          0.86251149	          0.15359915	          0.64025384	          0.05371965	          0.98660412	          0.91961363	          0.64390546	          0.59995786	          0.56506247	          0.71040072	
          1.01401944	        -15.13352212	          1.23006255	          0.87904409	         16.02724105	         31.68032535	        -47.01975185	         -6.42408659	          0.12767940	         -2.91791970	          0.69061444	          0.98310619	          0.58065568	          0.98630444	          0.05682609	          0.10726090	          0.83062869	          0.18525398	          0.36162888	          0.91459580	          0.13235966	          0.59890515	          0.05322688	          0.98864036	          0.95018593	          0.78203335	          0.51804216	          0.48756611	          0.81894608	
          1.02349625	        -14.64944758	          1.24025962	          0.88184036	         17.17420347	         30.93757692	        -49.45261022	         -7.18650709	         -0.71931049	         -3.13605481	         -0.09993066	          0.98358852	          0.51870215	          0.98547129	          0.05724224	          0.10047826	          0.89560363	          0.16064333	          0.31239000	          0.94607594	          0.11411820	          0.58299810	          0.05328104	          0.98930352	          0.96837608	          0.68678941	          0.44731003	          0.42068472	          0.88515477	
          1.03297307	        -14.07069421	          1.25042902	          0.88488518	         18.06504306	         29.90876358	        -51.32018433	         -7.56898706	         -1.17034260	         -3.76590909	         -1.04249652	          0.98198986	          0.48131451	          0.98259873	          0.05830420	          0.09651996	          0.93424930	          0.13945985	          0.26981133	          0.96461592	          0.09847541	          0.59212738	          0.05317998	          0.99006516	          0.97882370	          0.60342336	          0.38623457	          0.36296420	          0.92464123	
          1.04244989	        -13.42497633	          1.26061011	          0.88800789	         18.76562048	         28.62245247	        -52.73876060	         -7.59894675	         -1.28256151	         -4.62348261	         -2.06643290	          0.98060479	          0.46625456	          0.97961364	          0.05927139	          0.09418710	          0.94078536	          0.12128432	          0.23297461	          0.97462717	          0.08512237	          0.61263852	          0.05313326	          0.99055725	          0.98420904	          0.52785207	          0.33350390	          0.31315678	          0.94754289	
